<svg width="11" height="14" viewBox="0 0 11 14" fill="none" xmlns="http://www.w3.org/2000/svg">
<path d="M10.6977 7.57574L1.59786 13.8756C1.49284 13.9483 1.36995 13.9909 1.24248 13.9987C1.11502 14.0065 0.987838 13.9793 0.874718 13.9201C0.761597 13.8608 0.666844 13.7717 0.600719 13.6625C0.534595 13.5532 0.499617 13.428 0.499574 13.3002V0.700453C0.499489 0.572689 0.534373 0.447338 0.600448 0.337986C0.666521 0.228633 0.761264 0.139451 0.874408 0.0801026C0.987552 0.0207545 1.11478 -0.00649534 1.24231 0.00130651C1.36983 0.00910835 1.49279 0.0516642 1.59786 0.124362L10.6977 6.42426C10.7904 6.48896 10.8661 6.57509 10.9184 6.67533C10.9707 6.77557 10.998 6.88695 10.998 7C10.998 7.11305 10.9707 7.22443 10.9184 7.32467C10.8661 7.42491 10.7904 7.51104 10.6977 7.57574Z" fill="#8967FC"/>
</svg>
