<svg width="25" height="30" viewBox="0 0 25 30" fill="none" xmlns="http://www.w3.org/2000/svg">
<path d="M13.0584 30.0005C12.5589 30.0005 12.0595 30.0005 11.557 30.0005C11.508 29.9913 11.4559 29.9821 11.4069 29.976C10.6684 29.8902 9.92079 29.8473 9.19154 29.7155C7.13862 29.3478 5.25116 28.5696 3.62415 27.2398C1.56817 25.5545 0.284329 23.4342 0.0392046 20.744C-0.0833577 19.4019 0.0821014 18.0966 0.52639 16.8281C1.24951 14.766 2.51803 13.0838 4.18181 11.6958C5.67707 10.4487 7.05283 9.09442 8.23862 7.54708C8.27539 7.50112 8.35505 7.46128 8.41327 7.46128C10.9748 7.45822 13.5364 7.45822 16.0949 7.46128C16.1531 7.46128 16.2327 7.50112 16.2695 7.54708C17.443 9.0454 18.8004 10.3599 20.2865 11.5395C21.3528 12.3852 22.321 13.3198 23.084 14.4535C23.8898 15.6515 24.4046 16.9629 24.6037 18.3969C24.7386 19.3682 24.7232 20.3395 24.6007 21.3108C24.4475 22.5456 24.0829 23.7069 23.4455 24.7793C22.4589 26.437 21.0525 27.6381 19.3428 28.496C17.6146 29.3632 15.767 29.7829 13.8489 29.9361C13.5885 29.9607 13.3219 29.979 13.0584 30.0005ZM10.6163 20.0699C10.6071 20.1434 10.601 20.1955 10.5949 20.2445C10.5275 20.7133 10.4631 21.1821 10.3957 21.6509C10.218 22.9072 10.0342 24.1635 9.86257 25.4197C9.81048 25.7966 9.76146 26.1796 9.76146 26.5595C9.76146 26.918 10.0066 27.0314 10.2977 26.8231C10.4754 26.6974 10.6316 26.5381 10.7757 26.3757C12.0534 24.9325 13.328 23.4863 14.6027 22.0401C15.479 21.0442 16.3614 20.0546 17.2286 19.0526C17.3818 18.8749 17.5074 18.6635 17.5932 18.4459C17.6974 18.1824 17.584 17.9373 17.3266 17.8239C17.1581 17.7504 16.9651 17.6983 16.7843 17.6952C15.8926 17.6799 14.9979 17.686 14.1063 17.686C14.045 17.686 13.9868 17.686 13.9133 17.686C13.9561 17.3888 13.996 17.1131 14.0358 16.8373C14.2687 15.198 14.5046 13.5588 14.7314 11.9164C14.7651 11.6713 14.7834 11.417 14.7712 11.1719C14.7497 10.8317 14.5291 10.7276 14.2442 10.9206C14.094 11.0217 13.9561 11.1504 13.8366 11.2852C11.6459 13.764 9.45811 16.2398 7.27957 18.7248C7.12943 18.8963 7.013 19.1108 6.93027 19.3253C6.83528 19.5735 6.94559 19.8156 7.19071 19.9228C7.35617 19.9963 7.54001 20.0515 7.71773 20.0546C8.60937 20.0699 9.50408 20.0668 10.3957 20.0699C10.4631 20.0699 10.5275 20.0699 10.6163 20.0699Z" fill="white"/>
<path d="M12.2096 5.66526C11.0575 5.66526 9.90545 5.66526 8.75336 5.66833C8.63693 5.66833 8.55113 5.64382 8.47147 5.55496C8.02105 5.04326 7.55531 4.54382 7.11409 4.01987C6.68206 3.50817 6.19794 3.06388 5.64334 2.69007C5.37677 2.50929 5.1439 2.30093 5.00602 2.00372C4.8712 1.71263 4.84669 1.42155 5.03972 1.14885C5.23889 0.870016 5.52385 0.750518 5.85476 0.808735C6.21019 0.870016 6.56562 0.952746 6.90573 1.06305C7.52774 1.26222 8.0762 1.16417 8.57871 0.747454C8.77787 0.581995 8.99542 0.43492 9.21297 0.293973C9.71241 -0.0338806 10.2486 -0.0614571 10.7971 0.128514C10.9503 0.180603 11.0882 0.290909 11.223 0.388959C11.5294 0.606507 11.8266 0.839375 12.1361 1.05386C12.182 1.0845 12.2801 1.09063 12.3261 1.05999C12.4946 0.958874 12.657 0.839375 12.8132 0.719877C12.9082 0.649404 12.994 0.569739 13.0798 0.490073C13.7079 -0.0920977 14.4035 -0.128866 15.1419 0.23882C15.3564 0.346062 15.5709 0.483945 15.7425 0.655532C16.3308 1.24077 16.9957 1.29286 17.728 0.98645C17.872 0.925169 18.0221 0.870016 18.1692 0.817927C18.445 0.722941 18.7207 0.741326 18.9904 0.845504C19.4377 1.02015 19.6185 1.40316 19.4684 1.85664C19.3581 2.19369 19.1528 2.46639 18.8494 2.64717C18.1968 3.03324 17.6912 3.56639 17.2163 4.14856C16.8088 4.648 16.3522 5.11373 15.911 5.5856C15.865 5.63462 15.7701 5.65914 15.6965 5.65914C14.5352 5.66833 13.3709 5.66526 12.2096 5.66526Z" fill="white"/>
</svg>
