<svg width="24" height="24" viewBox="0 0 24 24" fill="none" xmlns="http://www.w3.org/2000/svg">
<path opacity="0.6" d="M9.6 4.8H14.4C14.4 4.16348 14.1471 3.55303 13.6971 3.10294C13.247 2.65286 12.6365 2.4 12 2.4C11.3635 2.4 10.753 2.65286 10.3029 3.10294C9.85286 3.55303 9.6 4.16348 9.6 4.8ZM7.2 4.8C7.2 3.52696 7.70571 2.30606 8.60589 1.40589C9.50606 0.505713 10.727 0 12 0C13.273 0 14.4939 0.505713 15.3941 1.40589C16.2943 2.30606 16.8 3.52696 16.8 4.8H22.8C23.1183 4.8 23.4235 4.92643 23.6485 5.15147C23.8736 5.37652 24 5.68174 24 6C24 6.31826 23.8736 6.62348 23.6485 6.84853C23.4235 7.07357 23.1183 7.2 22.8 7.2H21.7416L20.6784 19.608C20.5762 20.8062 20.028 21.9223 19.1422 22.7356C18.2565 23.5489 17.0977 24.0001 15.8952 24H8.1048C6.90229 24.0001 5.74353 23.5489 4.85778 22.7356C3.97203 21.9223 3.42381 20.8062 3.3216 19.608L2.2584 7.2H1.2C0.88174 7.2 0.576515 7.07357 0.351472 6.84853C0.126428 6.62348 0 6.31826 0 6C0 5.68174 0.126428 5.37652 0.351472 5.15147C0.576515 4.92643 0.88174 4.8 1.2 4.8H7.2ZM15.6 12C15.6 11.6817 15.4736 11.3765 15.2485 11.1515C15.0235 10.9264 14.7183 10.8 14.4 10.8C14.0817 10.8 13.7765 10.9264 13.5515 11.1515C13.3264 11.3765 13.2 11.6817 13.2 12V16.8C13.2 17.1183 13.3264 17.4235 13.5515 17.6485C13.7765 17.8736 14.0817 18 14.4 18C14.7183 18 15.0235 17.8736 15.2485 17.6485C15.4736 17.4235 15.6 17.1183 15.6 16.8V12ZM9.6 10.8C9.91826 10.8 10.2235 10.9264 10.4485 11.1515C10.6736 11.3765 10.8 11.6817 10.8 12V16.8C10.8 17.1183 10.6736 17.4235 10.4485 17.6485C10.2235 17.8736 9.91826 18 9.6 18C9.28174 18 8.97652 17.8736 8.75147 17.6485C8.52643 17.4235 8.4 17.1183 8.4 16.8V12C8.4 11.6817 8.52643 11.3765 8.75147 11.1515C8.97652 10.9264 9.28174 10.8 9.6 10.8ZM5.712 19.404C5.76312 20.0033 6.0374 20.5615 6.48053 20.9682C6.92366 21.3749 7.50334 21.6004 8.1048 21.6H15.8952C16.4962 21.5998 17.0753 21.374 17.518 20.9674C17.9606 20.5608 18.2345 20.0029 18.2856 19.404L19.332 7.2H4.668L5.7144 19.404H5.712Z" fill="#7D7D7D"/>
</svg>
