<svg width="11" height="6" viewBox="0 0 11 6" fill="none" xmlns="http://www.w3.org/2000/svg">
<path d="M0.229439 0.229439C0.376394 0.0825295 0.57568 0 0.783473 0C0.991266 0 1.19055 0.0825295 1.33751 0.229439L5.21653 4.10846L9.09555 0.229439C9.24334 0.086693 9.44129 0.0077061 9.64676 0.00949156C9.85223 0.011277 10.0488 0.0936919 10.1941 0.238985C10.3394 0.384278 10.4218 0.580825 10.4236 0.786293C10.4253 0.991761 10.3464 1.18971 10.2036 1.33751L5.77056 5.77056C5.62361 5.91747 5.42432 6 5.21653 6C5.00873 6 4.80945 5.91747 4.66249 5.77056L0.229439 1.33751C0.0825294 1.19055 0 0.991266 0 0.783473C0 0.57568 0.0825294 0.376394 0.229439 0.229439Z" fill="#7D7D7D"/>
</svg>
