<svg width="24" height="24" viewBox="0 0 24 24" fill="none" xmlns="http://www.w3.org/2000/svg">
<g opacity="0.6">
<path d="M10.8 9.6001H8.40005V13.2001H4.80005V15.6001H8.40005V19.2001H10.8V15.6001H14.4V13.2001H10.8V9.6001Z" fill="#7D7D7D"/>
<path d="M2.4 24H16.8C18.1236 24 19.2 22.9236 19.2 21.6V7.20005C19.2 5.87645 18.1236 4.80005 16.8 4.80005H2.4C1.0764 4.80005 0 5.87645 0 7.20005V21.6C0 22.9236 1.0764 24 2.4 24ZM2.4 7.20005H16.8L16.8024 21.6H2.4V7.20005Z" fill="#7D7D7D"/>
<path d="M21.6 0H7.19995V2.4H21.6V16.8H24V2.4C24 1.0764 22.9236 0 21.6 0Z" fill="#7D7D7D"/>
</g>
</svg>
