<svg width="18" height="20" viewBox="0 0 18 20" fill="none" xmlns="http://www.w3.org/2000/svg">
<path fill-rule="evenodd" clip-rule="evenodd" d="M16.9286 4.91429L12.2429 0.2L11.7429 0H0.714286L0 0.714286V8.57143H1.42857V1.42857H10V6.42857L10.7143 7.14286H15.7143V8.57143H17.1429V5.42857L16.9286 4.91429ZM11.4286 5.71429V1.42857L15.7143 5.71429H11.4286ZM0.714286 10L0 10.7143V19.2857L0.714286 20H16.4286L17.1429 19.2857V10.7143L16.4286 10H0.714286ZM15.7143 17.1429V18.5714H1.42857V11.4286H15.7143V17.1429ZM4.28571 15.7143H3.82857V17.1429H2.85714V12.8571H4.37143C5.44286 12.8571 5.98571 13.3714 5.98571 14.2857C5.98848 14.48 5.94904 14.6726 5.87011 14.8502C5.79118 15.0278 5.67466 15.1861 5.52857 15.3143C5.17454 15.5902 4.73424 15.732 4.28571 15.7143ZM4.2 13.6429H3.82857V14.9714H4.2C4.71429 14.9714 4.97143 14.7429 4.97143 14.3C4.97143 13.8571 4.71429 13.6429 4.2 13.6429ZM10 16.5429C10.211 16.3351 10.376 16.0852 10.4842 15.8096C10.5925 15.534 10.6417 15.2387 10.6286 14.9429C10.6286 13.5143 9.87143 12.8571 8.34286 12.8571H6.82857V17.1429H8.34286C8.64504 17.1575 8.94712 17.112 9.23158 17.009C9.51605 16.906 9.77723 16.7476 10 16.5429ZM7.78571 16.3571V13.6429H8.25714C8.43935 13.6313 8.62201 13.657 8.79394 13.7184C8.96588 13.7798 9.12349 13.8756 9.25714 14C9.37822 14.1272 9.47229 14.2775 9.53367 14.442C9.59506 14.6065 9.62248 14.7818 9.61428 14.9571C9.63568 15.3337 9.5073 15.7034 9.25714 15.9857C9.12636 16.1109 8.97162 16.2083 8.80223 16.2721C8.63283 16.3359 8.45228 16.3649 8.27143 16.3571H7.78571ZM14.1429 15.4857H12.7571V17.1429H11.7857V12.8571H14.2714V13.6429H12.7571V14.7H14.1429V15.4857Z" fill="#8967FC"/>
</svg>
