<svg width="27" height="30" viewBox="0 0 27 30" fill="none" xmlns="http://www.w3.org/2000/svg">
<path fill-rule="evenodd" clip-rule="evenodd" d="M25.8024 7.37143L18.6605 0.3L17.8984 0H1.08871L0 1.07143V12.8571H2.17742V2.14286H15.2419V9.64286L16.3306 10.7143H23.9516V12.8571H26.129V8.14286L25.8024 7.37143ZM17.4194 8.57143V2.14286L23.9516 8.57143H17.4194ZM1.08871 15L0 16.0714V28.9286L1.08871 30H25.0403L26.129 28.9286V16.0714L25.0403 15H1.08871ZM23.9516 25.7143V27.8571H2.17742V17.1429H23.9516V25.7143ZM6.53226 23.5714H5.83548V25.7143H4.35484V19.2857H6.6629C8.29597 19.2857 9.12339 20.0571 9.12339 21.4286C9.1276 21.72 9.06748 22.0089 8.94719 22.2753C8.82689 22.5417 8.64927 22.7792 8.42661 22.9714C7.887 23.3854 7.2159 23.5979 6.53226 23.5714ZM6.40161 20.4643H5.83548V22.4571H6.40161C7.18548 22.4571 7.57742 22.1143 7.57742 21.45C7.57742 20.7857 7.18548 20.4643 6.40161 20.4643ZM15.2419 24.8143C15.5635 24.5026 15.815 24.1279 15.98 23.7144C16.145 23.301 16.22 22.858 16.2 22.4143C16.2 20.2714 15.046 19.2857 12.7161 19.2857H10.4081V25.7143H12.7161C13.1767 25.7362 13.6371 25.668 14.0707 25.5135C14.5043 25.359 14.9024 25.1213 15.2419 24.8143ZM11.8669 24.5357V20.4643H12.5855C12.8632 20.4469 13.1416 20.4855 13.4037 20.5776C13.6657 20.6697 13.906 20.8134 14.1097 21C14.2942 21.1907 14.4376 21.4163 14.5312 21.663C14.6247 21.9098 14.6665 22.1726 14.654 22.4357C14.6867 23.0006 14.491 23.5552 14.1097 23.9786C13.9103 24.1663 13.6745 24.3124 13.4163 24.4082C13.1581 24.5039 12.8829 24.5473 12.6073 24.5357H11.8669ZM21.5565 23.2286H19.4444V25.7143H17.9637V19.2857H21.7524V20.4643H19.4444V22.05H21.5565V23.2286Z" fill="#7D7D7D" fill-opacity="0.6"/>
</svg>
