<svg width="21" height="21" viewBox="0 0 21 21" fill="none" xmlns="http://www.w3.org/2000/svg">
<path d="M1.5517 0.111078L19.8137 9.22721C19.9981 9.3193 20.1537 9.46392 20.2626 9.64439C20.3716 9.82486 20.4294 10.0338 20.4294 10.2471C20.4294 10.4604 20.3716 10.6693 20.2626 10.8498C20.1537 11.0303 19.9981 11.1749 19.8137 11.267L1.5517 20.3831C1.36441 20.4768 1.15527 20.5123 0.949174 20.4855C0.743082 20.4586 0.548731 20.3705 0.389267 20.2316C0.229803 20.0928 0.111949 19.909 0.0497402 19.7022C-0.0124682 19.4954 -0.0164085 19.2743 0.0383886 19.0652L1.86546 12.0748C1.88782 11.9891 1.93386 11.9122 1.99782 11.8536C2.06178 11.7951 2.14085 11.7575 2.22515 11.7455L11.0745 10.4909C11.1114 10.4855 11.1463 10.4702 11.1759 10.4466C11.2055 10.423 11.2288 10.3918 11.2435 10.3561L11.2591 10.2991C11.2659 10.2486 11.2562 10.1972 11.2315 10.1532C11.2068 10.1092 11.1686 10.0752 11.123 10.0567L11.0753 10.0431L2.23468 8.7894C2.15054 8.77727 2.07166 8.73959 2.00786 8.68105C1.94407 8.62251 1.89816 8.54569 1.87586 8.46014L0.0383886 1.42902C-0.0164085 1.21994 -0.0124682 0.998834 0.0497402 0.792029C0.111949 0.585224 0.229803 0.401438 0.389267 0.262561C0.548731 0.123685 0.743082 0.0355706 0.949174 0.00871361C1.15527 -0.0181434 1.36441 0.0173889 1.5517 0.111078V0.111078Z" fill="white"/>
</svg>
