<svg width="39" height="25" viewBox="0 0 39 25" fill="none" xmlns="http://www.w3.org/2000/svg">
<path d="M19.4565 23.2889C29.2547 23.2889 37.1973 12.6444 37.1973 12.6444C37.1973 12.6444 29.2547 2 19.4565 2C9.65834 2 1.71582 12.6444 1.71582 12.6444C1.71582 12.6444 9.65834 23.2889 19.4565 23.2889Z" stroke="#7D7D7D" stroke-opacity="0.6" stroke-width="3" stroke-linejoin="round"/>
<path d="M19.4565 17.0796C20.6328 17.0796 21.7609 16.6123 22.5927 15.7806C23.4244 14.9488 23.8917 13.8207 23.8917 12.6444C23.8917 11.4681 23.4244 10.34 22.5927 9.50826C21.7609 8.67651 20.6328 8.20923 19.4565 8.20923C18.2803 8.20923 17.1522 8.67651 16.3204 9.50826C15.4886 10.34 15.0214 11.4681 15.0214 12.6444C15.0214 13.8207 15.4886 14.9488 16.3204 15.7806C17.1522 16.6123 18.2803 17.0796 19.4565 17.0796Z" stroke="#7D7D7D" stroke-opacity="0.6" stroke-width="3" stroke-linejoin="round"/>
</svg>
