<?xml version="1.0" standalone="no"?>
<!DOCTYPE svg PUBLIC "-//W3C//DTD SVG 20010904//EN"
 "http://www.w3.org/TR/2001/REC-SVG-20010904/DTD/svg10.dtd">
<svg version="1.0" xmlns="http://www.w3.org/2000/svg"
 width="350.000000pt" height="85.000000pt" viewBox="0 0 350.000000 85.000000"
 preserveAspectRatio="xMidYMid meet">
<metadata>
Created by potrace 1.16, written by Peter Selinger 2001-2019
</metadata>
<g transform="translate(0.000000,85.000000) scale(0.100000,-0.100000)"
fill="#000000" stroke="none">
<path d="M2690 460 l0 -200 30 0 30 0 0 200 0 200 -30 0 -30 0 0 -200z"/>
<path d="M3127 642 c-10 -10 -17 -24 -17 -30 0 -17 47 -15 54 3 7 19 32 20 39
1 6 -16 -11 -36 -30 -36 -23 0 -14 -28 9 -32 13 -2 24 -10 26 -19 4 -23 -28
-33 -48 -14 -25 22 -59 20 -53 -4 10 -38 90 -54 131 -25 21 15 30 53 15 68 -4
4 -6 23 -4 42 1 19 -3 42 -9 50 -18 21 -93 18 -113 -4z"/>
<path d="M3280 564 l0 -96 71 4 c63 3 74 7 95 31 34 40 33 100 -2 132 -23 22
-37 25 -95 25 l-69 0 0 -96z"/>
<path d="M1365 636 c-60 -26 -115 -113 -115 -181 0 -70 56 -156 117 -181 44
-19 134 -18 183 2 37 15 40 19 40 55 0 44 -16 51 -45 19 -10 -11 -35 -25 -56
-31 -52 -16 -116 15 -147 70 -27 48 -28 73 -1 127 28 59 90 90 147 75 21 -6
47 -20 57 -31 29 -32 45 -25 45 19 0 36 -3 40 -40 55 -48 19 -143 20 -185 2z"/>
<path d="M40 615 c0 -24 3 -25 55 -25 l55 0 0 -165 0 -165 30 0 30 0 0 165 0
165 50 0 c47 0 50 2 50 25 l0 25 -135 0 -135 0 0 -25z"/>
<path d="M493 503 l-43 -4 0 -120 0 -119 35 0 35 0 0 89 c0 82 2 91 22 105 28
20 33 20 52 0 12 -12 16 -37 16 -105 l0 -89 35 0 35 0 0 89 c0 82 2 91 22 105
28 20 33 20 52 0 12 -12 16 -37 16 -105 l0 -89 36 0 36 0 -4 106 c-3 97 -6
108 -27 125 -26 21 -100 26 -133 8 -14 -8 -23 -8 -31 0 -11 11 -64 12 -154 4z"/>
<path d="M904 476 c-31 -31 -34 -40 -34 -91 0 -51 3 -60 34 -91 30 -30 40 -34
89 -34 45 0 61 5 86 26 36 30 39 50 10 59 -14 5 -28 0 -42 -13 -38 -34 -64
-36 -92 -8 -14 14 -25 30 -25 36 0 6 34 10 90 10 l90 0 0 31 c0 69 -42 108
-118 109 -48 0 -58 -4 -88 -34z"/>
<path d="M1664 492 c-32 -25 -44 -55 -44 -107 0 -55 23 -100 59 -114 14 -6 63
-10 109 -10 l82 1 0 118 0 117 -61 7 c-94 9 -122 7 -145 -12z m124 -51 c32
-40 26 -101 -12 -126 -50 -33 -104 22 -91 92 11 58 69 77 103 34z"/>
<path d="M1963 503 l-43 -4 0 -175 0 -174 30 0 c30 0 30 0 30 58 l0 58 58 -4
c47 -3 62 0 84 18 57 44 61 148 8 202 -30 29 -47 32 -167 21z m109 -53 c46
-36 41 -122 -9 -141 -70 -26 -118 92 -57 140 33 26 35 26 66 1z"/>
<path d="M2210 490 c-25 -25 -26 -72 -2 -93 9 -8 36 -23 60 -32 27 -11 42 -23
42 -35 0 -27 -26 -31 -53 -9 -30 22 -50 24 -66 5 -27 -33 20 -66 95 -66 110 0
129 120 24 151 -50 15 -66 32 -45 49 12 10 20 9 41 -5 26 -17 74 -14 74 5 0 6
-9 19 -20 30 -15 15 -33 20 -75 20 -42 0 -60 -5 -75 -20z"/>
<path d="M2824 476 c-31 -31 -34 -40 -34 -91 0 -51 3 -60 34 -91 30 -30 40
-34 89 -34 45 0 61 5 86 26 36 30 39 50 10 59 -14 5 -28 0 -42 -13 -38 -34
-64 -36 -92 -8 -14 14 -25 30 -25 36 0 6 34 10 90 10 l90 0 0 31 c0 69 -42
108 -118 109 -48 0 -58 -4 -88 -34z"/>
<path d="M2412 404 c3 -91 5 -97 31 -120 23 -20 39 -24 88 -24 50 0 64 4 84
25 23 22 25 32 25 120 l0 95 -30 0 -30 0 0 -80 c0 -67 -3 -83 -20 -100 -25
-25 -32 -25 -61 -1 -21 17 -24 30 -27 100 l-4 81 -30 0 -30 0 4 -96z"/>
</g>
</svg>
